<?xml version="1.0" encoding="UTF-8"?>
<svg id="Capa_1" data-name="Capa 1" xmlns="http://www.w3.org/2000/svg" viewBox="0 0 500 125">
  <defs>
    <style>
      .cls-1 {
        fill: #f5f5f7;
        stroke-width: 0px;
      }
    </style>
  </defs>
  <polygon class="cls-1" points="369.39 62.52 342.77 62.52 356.12 39.44 329.47 39.49 316.16 62.52 302.86 85.55 329.47 85.55 316.16 62.52 342.77 62.52 356.08 85.55 342.77 108.58 262.94 108.58 316.2 16.41 369.39 16.41 382.69 39.44 369.39 62.52"/>
  <path class="cls-1" d="M118.09,16.41l-13.3,23.03h0c-16.47,0-31.69,8.79-39.92,23.05l-26.61,46.09H11.64L51.56,39.44h-26.61l13.3-23.03h79.84Z"/>
  <polygon class="cls-1" points="210.6 16.41 157.42 108.33 77.58 108.33 130.72 16.41 157.34 16.41 117.5 85.3 144.11 85.3 183.9 16.41 210.6 16.41"/>
  <path class="cls-1" d="M434.93,16.41c-16.34,0-31.41,8.72-39.58,22.86l-40.04,69.31h53.64c16.22,0,31.22-8.66,39.33-22.71l40.09-69.46h-53.43Z"/>
  <g>
    <path class="cls-1" d="M257.13,97.53l-6.38,11.06h-26.62l6.38-11.06c4.28-7.41,4.28-16.55,0-23.97l-6.36-11.04h26.62l6.36,11.06c4.28,7.41,4.28,16.55,0,23.95Z"/>
    <polygon class="cls-1" points="290.68 39.44 277.38 62.52 250.76 62.52 264.07 39.44 237.46 39.49 224.15 62.52 197.5 108.58 170.93 108.58 224.15 16.41 277.38 16.41 290.68 39.44"/>
  </g>
</svg>