<?xml version="1.0" encoding="UTF-8"?>
<svg id="Capa_1" data-name="Capa 1" xmlns="http://www.w3.org/2000/svg" viewBox="0 0 500 500">
  <defs>
    <style>
      .cls-1 {
        fill: #f5f5f7;
      }

      .cls-1, .cls-2 {
        stroke-width: 0px;
      }

      .cls-2 {
        fill: #ff003d;
      }
    </style>
  </defs>
  <rect class="cls-2" width="500" height="500"/>
  <g>
    <polygon class="cls-1" points="355.23 250.02 331.82 250.02 343.56 229.71 320.11 229.75 308.4 250.02 296.69 270.28 320.11 270.28 308.4 250.02 331.82 250.02 343.53 270.28 331.82 290.55 261.57 290.55 308.44 209.45 355.23 209.45 366.94 229.71 355.23 250.02"/>
    <path class="cls-1" d="M134.12,209.45l-11.71,20.27h0c-14.49,0-27.88,7.73-35.12,20.28l-23.41,40.56h-23.41l35.12-60.84h-23.41l11.71-20.27h70.25Z"/>
    <polygon class="cls-1" points="215.52 209.45 168.73 290.33 98.48 290.33 145.24 209.45 168.66 209.45 133.61 270.06 157.02 270.06 192.03 209.45 215.52 209.45"/>
    <path class="cls-1" d="M412.9,209.45c-14.38,0-27.64,7.67-34.83,20.12l-35.23,60.98h47.2c14.28,0,27.47-7.62,34.6-19.98l35.28-61.12h-47.01Z"/>
    <g>
      <path class="cls-1" d="M256.46,280.82l-5.61,9.73h-23.42l5.61-9.73c3.77-6.52,3.77-14.56,0-21.09l-5.6-9.71h23.42l5.6,9.73c3.77,6.52,3.77,14.56,0,21.08Z"/>
      <polygon class="cls-1" points="285.98 229.71 274.28 250.02 250.86 250.02 262.57 229.71 239.15 229.75 227.44 250.02 203.99 290.55 180.61 290.55 227.44 209.45 274.28 209.45 285.98 229.71"/>
    </g>
  </g>
</svg>